P1 128 64
1111111111111111111111111111111111111110011111111111111111111111111111
1111111111111111100111111111111111111111111111111111111111111111111111
1111111111111111111111111110111010111111111111111111111111111111111111
1111110111111111111111111111111111111111111111111111111111111111111111
1111111111111110110000011111111111111111111111111111111111111111011111
1111111111111111111111111111111111111111111111111111111111111111111111
1110100100001111111111111111111111111111111111111111011111111111111111
1111111111111111111111111111111111111111111111111111111111111011000001
1111111111111111111111111111111111111111011111111111111111111111111111
1111111111111111111111111111111111111111111111111010000000111111111111
1111111111111111111111111111011111111111111111111111111111111111111111
1111111111111111111111111111111111111011000001111111111111101011111111
1111111111011111011111111111111111111111111111111111111111111111111111
1111111111111111111111111011101011111111111111111011111111111111111000
1111011111111111111111111111111111111111111111111111111111111111111111
1111111111111011111111111111111111110111111111000001110101011101111111
1111111111111111111111111111111111111111111111111111111111111111111111
1001111111111111111111110101111110011100111101111001111111111111111111
1111111111111111111111111111111111111111111111111111111111111111111111
1111111111111111111110111110111111111111111111111111111111111111111111
1111111111111111111111111111111111111111111111111111111111111111111111
1111111110111110111111111111111111111111111111111111111111111111111111
1111111111111111111111111111111111100111111111111111111110100111111010
1010111101111001111111111111111111111111111111111111111111111111111111
1111111111111111111111101110011111111111111111101111111000000011010101
1101111111111111111111111111111111111111111111111111111111111111111111
1111111111101111011111111111111111101111111111111111100011110111111111
1111111111111111111111111111111111111111111111111111111111111111111110
1110011111111111111111100111111111111111110111110111111111111111111111
1111111111111111111111111111111111111111111111111111111110111101111111
1111111111111111111111111111111111110111111111111111111111111111111111
1111111111111111111111111111111111111111111110111001111111111111111111
1111111111111111111111110111111111111111111111111111111111111111111111
1111111111111111111111111111111110110000111111111111111111111111111111
1111111111110111111111111111111111111111111111111111111111111111111111
1111111111111111111110110000111111111111111111111111111111111111111111
0111111111111111111111111111111111111111111111111111111111111111111111
1111111110111001111111111111111111111111111111111111111111011111111111
1111111111111111111111111111111111111111111111111111111111111111111001
1111111111111111111111111111111111111111111110011111111111111111111111
1111111111111111111111111111111111111111111111111111111111111111111111
1111111111111111111111111111111111111111111111111111111111111111111111
1111111111111111111111111111111111111111111111111111111111111111111111
1111111111111111111111111111111111111111111111111111111111111111111111
1111111111111111111111111111111111111111111111111111111111111111111111
1111111111111111111111111111111111111111111111111111111111111111111111
1111111111111111111111111111111111111111111111111111111111111111111111
1111111111111111111111110111111111111111111111111111111111111111111111
1111100111111111111111111111111111111111111111111111111001001111111111
1111111111000111111000111111111111111111111110000000111111111110011111
1111111111111111111111111111111111111111111001001111111111111111111101
0111100111001111111111111111111101111011011111111110011100111000001001
0011111111111111100111000001001111111111111111111111111100011101110111
0111111111111111111011001101101111111110011000110000000001001111111111
1111100110000000001001001111111111111111111111111101110111011111111111
1111111010000100101111111110010001100011100001100111110001111100110001
1100001001001111111111111111111101111011110111101111111111111111100111
0100101111111110000011100111110001100111110001111100110011111000100100
1111111111111111111100011011110001101111111111111111101100100110111111
1110000111100111110001110011100100111001110011111000100100111111111111
1111111101011011011111101111111111111111101001011100111111111000001110
0111110001110011100100111001110011111000100100111111111111111111110101
1110001111011111111111111111101001000010111111111001000110001110000111
1001001110010011110001110000100100111111111111111111111111110000011101
1111111111111111101101100110111111111001100011000000000111100000111000
0011111000000000100100111111111111111111111111111101110011111111111111
1111110110111101111111111001110011100000100111110001111100011111110000
0100100100111111111111111111110010111101001111111111111111111111100000
0011111111111111111111111111111111111111111111111111111111111111111111
1111111111111111110101011111111111111111111111111111111111111111111111
1111111111111111111111111111111111111111111111111111111111111111111111
1111110101011111111111111111111111111111111111111111111111111111111111
1111111111111111111111111111111111111111111111111111111111111111111111
1111111111111111111111111111111111111111111111111111111111111111111111
1111111111111111111111111111111111111111111111111111111111111111111111
1111111111111111111111111111111111111111111111111111111111111111111111
1111111111111111111111111111111111111111111111111111111111111111111111
1111111111111111111111111001111111111111111111111111111111111111111111
1110011111111111111111111111111111111111111111111111111111111111111111
1111111111111011100111111111111111111111111111111111111111111101111111
1111111111111111111111111111111111111111111111111111111111111111111111
1011110111111111111111111111111111111111111111111101111111111111111111
1111111111111111111111111111111111111111111111111111111111101110011111
1111111111111111111111111111111111111101111111111111111111111111111111
1111111111111111111111111111111111111111111111101111011111111111111111
1111111111111111111111111101111111111111111111111111111111111111111111
1111111111111111111111111111111111101110011111111111111111111111111111
1111111111111101111111111111111111111111111111111111111111111111111111
1111111111111111111111101100001111111111111110100111111111111111110111
1101111111111111111111111111111111111111111111111111111111111111111111
1111111111101100001111111111111111101111111100001111100011110111111111
1111111111111111111111111111111111111111111111111111111111111111111110
1110011111111111111111101111111101110111010101110111111111111111111111
1111111111111111111111111111111111111111111111111111111110011111111111
1111111111100111111100000011110111100111111111111111111111111111111111
1111111111111111111111111111111111111111111111111111111111111111111111
1111111101110011111111111111111111111111111111111111111111111111111111
1111111111111111111111111111111111111111111111111111111111111111110000
0011111111111111111111111111111111111111111111111111111111111111111111
1111111111111111111110011111111111111111111010111111110111001111011110
0111111111111111111111111111111111111111111111111111111111111111111111
1111111110111111111111111111111110111111110000001101010111011111111111
1111111111111111111111111111111111111111111111111111111111111111111011
1111111111111111111101111111111111111110001111011111111111111111111111
1111111111111111111111111111111111111111111111111111111010000000111111
1111111101011111111111111111011111011111111111111111111111111111111111
1111111111111111111111111111111111111111111010101010111111111111111111
1111111111111111111111011111111111111111111111111111111111111111111111
1111111111111111111111111111111010000000111111111111111111111111111111
1111111111011111111111111111111111111111111111111111111111111111111111
1111111111111111111011000101111111111111111111111111111111111111111101
1111111111111111111111111111111111111111111111111111111111111111111111
1111111011111111111111111111111111111111111111111111111101111111111111
1111111111111111111111111111111111111111111111111111111111111111101111
1111111111111111111111111111111111111111111101111111111111111111111111
1111111111111111111111111111111111111111111111111111100111111111111111
1111111111111111111111111111111001111111111111111111111111111111111111
11
