P1 128 64
1111111111111111111111111111111001111111111111111111111111111111111111
1111111111111111111111001111111111111111111111111111111111111111111111
1111111111111111111011111111111111111111111111111111111111111111111111
1111111111011111111111111111111111111111111111111111111111111111111111
1111111011101011111111111111111111111111111111111111111111111111111101
1111111111111111111111111111111111111111111111111111111111111111101100
0001111111111111101011111111111111111111111111111111111101111111111111
1111111111111111111111111111111111111111111111111111101001000011111111
1111111011111111111111111111111111111111111101111111111111111111111111
1111111111111111111111111111111111111111101100000111111111111111011111
1111111111111111111111111111111101111111111111111111111111111111111111
1111111111111111111111111111101000000011111111111111010111111111111111
1111111111111111111101111011111111111111111111111111111111111111111111
1111111111111111101100000111111111111111111111111111111111111111111111
1111111101110101111000001111111111111111111111111111111111111111111111
1111101110101111111111111111111111111111111111111111111111111111110110
1110110011100111111111111111111111111111111111111111111111111110011111
1111111111111111111111111111111111111111111111111111110011111111011111
0111111111111111111111111111111111111111111111111111111111111111111111
1111111111111111111111111111111111111111111111111111011111011111111111
1111111111111111111111111111111111111110011111111111111111111111111111
1111111111111111111111111111110011111111010101011111111111111111111111
1111111111111111111111111110111001111111111111111111111111111111111111
1111111111111111110110111011000000011111111111111111111111111111111111
1111111111111110111101111111111111111111111111111111111111111111111111
1111110111010111111111111111111111111111111111111111111111111111111111
1110111001111111111111111010011111111111111111111111111111111111011110
1111111111111111111111111111111111111111111111111111111111111011110111
1111111111111110111111111111111111111111111111111111011111111111111111
1111111111111111111111111111111111111111111111111011100111111111111111
1110111111111111111111111111111111111111011111111111111111111111111111
1111111111111111111111111111111111111011000011111111111111111001111111
1111111111111111111111111111011111111111111111111111111111111111111111
1111111111111111111111111011000011111111111111111111111111111111111111
1111111111111111011111111111111111111111111111111111111111111111111111
1111111111111011100111111111111111111111111111111111111111111111111111
1111011111111111111111111111111111111111111111111111111111111111111111
1001111111111111111111111111111111111111111111111111111111111100111111
1111111111111111111111111111111111111111111111111111111111111111111111
1111111111111111111111111111111111111111111111111111111111111111111111
1111111111111111111111111111111111111111111111100111111111111111111111
1111111111111111111111111111111111111100111111111111111111111111111111
1111111111111111111111111111111111101111111111111111111111111111111111
1111111111111111111111111101111111111111111111111111111111111111111111
1111111111111111111111101111111111111111111111111111111111111111111111
1111111111111101111111111111111111111111111111111111111111111111111111
1111111111101000000011111111111110101111111111111111111111111111111111
1101111111111111111111111111111111111111111111111111111111111111111110
1010101011111111111111101111111111111111111111111111111111110111111111
1111111111111111111111111111111111111111111111111111111110100000001111
1111111111011111111111111111111111111111111111110111111111111111111111
1111111111111111111111111111111111111111111110110001011111111111111101
0111111111111111111111111111111111110111101111111111111111111111111111
1111111111111111111111111111111110111111111111111111111111111111111111
1111111111111111111111110111000111000011111111111111111111111111111111
1111111111111111111110111111111111111111111111111111111111111111111111
1111111111110110000011011101111111111111111111111111111111111111111111
1111111110011111111111111111111111111111111111111111111111111111111111
0011111111000000111111111111111111111111111111111111111111111111111111
1111111111111111111111111111111111111111111111111111111111111111111101
1100111111111111111111111111111111111111111111111111111111111111111111
1111111111111111111111111111111111111111111111001111111100000011111111
1111111111111111111111111111111111111111111111111111111111111111111111
1111111111111111111111111111111111011000001101110011111111111111111111
1111111111111111111111111111111111111111111111111111111111111111111111
1111111111111111111111011100011100000011111111111111111111111111100011
1111111111100000001111111111111111111111111111111111111111111111111111
1111111111011110111111111111111111111111111111111110011100111111111101
1011110111111111111111111111111111111111111111111111111111111111111101
1111111111111111111111111111111111111101110111011111111011011001101111
1111111111111111111111111111111111111111111111111111111101111111111111
1111111111111111111111111111110111011111111010010000101111111111111111
1111111111111111111111111111111111111111111101111111111111111111111111
1111111111111011110111101111111010010111001111111111111111111111111111
1111111111111111111111111111111101111111111111111111111111111111111111
0001110001101111111011001001101111111111111111111111111111111111111111
1111111111111111111101111111111111111111111111111111111110000011111110
1111111001110100101111111111111111111111111111111111111111111111111111
1111111100111111111111111111111111111111111111101111111101111111101000
0100101111111111111111111111111111111111111111111111111111111111111111
1111111111111111111111111111111111101111111101111111101100110110111111
1111111111111111111111111111111111111111111111111111110011111111111111
1111111111111111111111101001110011111111110111101101111111111111111111
1111111111111111111111111111111111111111110110010011111111111111111111
1111111111111110001111111111111000000011111111111111111111111111111111
1111111111111111111111111111110110010011111111111111111111111111111111
1111111111111111111111111111111111111111111111111111111111111111111111
1111111111111111110111111111111111111111111111111111111111111111111111
1111111111111111111111111111111111111111111111111111111111111111111111
1111110110010011111111111111111111111111111111111111111111111111111111
1111111111111111111111111111111111111111111111111111111111111111011001
0011111111111111111111111111111111111111111101111111111111111111111111
1111111111111111111111111111111111111111111111111111011111111111111111
1111111111111111111111111111110001111111111111111111111111111111111111
1111111111111111111111111111111111111111011001001111111111111111111111
1111111111111111110101111111111111111111111111111111111111111111111111
1111111111111111111111111111011001001111111111111111111111111111111111
1111110001111111111111111111111111111111111111111111111111111111111111
1111111111111111001111111111111111111111111111111111111111111111111111
1111111111111111111111111111111111111111111111111111111111111111111111
1111111111111111111111111111111111111111111111111111011111111111111111
1111111111111111111111111111111111111111111111111111111111111111111111
1111111111111111111111111111111111111111000111111111111111111111111111
1111111111111111111111111111111111111111111111111111111111111111111111
1111111111111111111111111111010111111111111111111111111111111111111111
1111111111111111111111111111111111111111111111111111111111111111111111
1111111111111111010111111111111111111111111111111111111111111111111111
1111111111111111111111111111111111111111111111111111111111111111111111
1111111111111111111111111111111111111111111111111111111111111111111111
1111111111111111111111111111111111111111111111111111111111111111111111
1111111111111111111111111111111111111111111111111111111111111111111111
1111111111111111111111111111111111111111111111111100101111111111111111
1111111111111111111111111111111111111111111111111111111111111111111111
1111111111111111111111111111111111111101010111111111111111111111111111
1111111111111111111111111111111111111111111111111111111111111111111111
1111111111111111111111111101010111111111111111111111111111111111111111
1111111111111111111111111111111111111111111111111111111111111111111111
11
